<svg width="21" height="21" viewBox="0 0 21 21" fill="none" xmlns="http://www.w3.org/2000/svg">
<path fill-rule="evenodd" clip-rule="evenodd" d="M10.0139 18.0249C14.4383 18.0249 18.025 14.4382 18.025 10.0138C18.025 5.58938 14.4383 2.00269 10.0139 2.00269C5.58947 2.00269 2.00278 5.58938 2.00278 10.0138C2.00278 14.4382 5.58947 18.0249 10.0139 18.0249ZM11.0153 6.00824C11.0153 5.45519 10.5669 5.00685 10.0139 5.00685C9.46084 5.00685 9.0125 5.45519 9.0125 6.00824V10.0138C9.0125 10.2794 9.118 10.5341 9.3058 10.7219L12.1382 13.5542C12.5292 13.9453 13.1633 13.9453 13.5543 13.5542C13.9454 13.1632 13.9454 12.5291 13.5543 12.1381L11.0153 9.59901V6.00824Z" fill="white" fill-opacity="0.8"/>
</svg>
