<svg width="21" height="21" viewBox="0 0 21 21" fill="none" xmlns="http://www.w3.org/2000/svg">
<path d="M2.00578 5.89223L10.0139 9.89579L18.022 5.89223C17.9923 5.38197 17.7687 4.90235 17.3969 4.5516C17.0252 4.20085 16.5333 4.00552 16.0222 4.00562H4.00555C3.49443 4.00552 3.00261 4.20085 2.63083 4.5516C2.25904 4.90235 2.03543 5.38197 2.00578 5.89223Z" fill="white" fill-opacity="0.8"/>
<path d="M18.025 8.12934L10.0139 12.1349L2.00278 8.12934V14.0195C2.00278 14.5507 2.21378 15.0601 2.58938 15.4357C2.96497 15.8113 3.47439 16.0223 4.00555 16.0223H16.0222C16.5534 16.0223 17.0628 15.8113 17.4384 15.4357C17.814 15.0601 18.025 14.5507 18.025 14.0195V8.12934Z" fill="white" fill-opacity="0.8"/>
</svg>
