<svg width="21" height="21" viewBox="0 0 21 21" fill="none" xmlns="http://www.w3.org/2000/svg">
<path d="M2.00278 3.00407C2.00278 2.45102 2.45111 2.00269 3.00417 2.00269H5.16003C5.64955 2.00269 6.06732 2.35659 6.14779 2.83945L6.88813 7.28148C6.9604 7.71512 6.74141 8.14518 6.3482 8.34178L4.79791 9.11692C5.91576 11.8947 8.13296 14.1119 10.9108 15.2298L11.6859 13.6795C11.8825 13.2863 12.3126 13.0673 12.7462 13.1396L17.1882 13.8799C17.6711 13.9604 18.025 14.3781 18.025 14.8677V17.0235C18.025 17.5766 17.5767 18.0249 17.0236 18.0249H15.0208C7.83116 18.0249 2.00278 12.1965 2.00278 5.00685V3.00407Z" fill="white" fill-opacity="0.8"/>
</svg>
